<?xml version="1.0" standalone="no"?>
<!DOCTYPE svg PUBLIC "-//W3C//DTD SVG 20010904//EN"
 "http://www.w3.org/TR/2001/REC-SVG-20010904/DTD/svg10.dtd">
<svg version="1.0" xmlns="http://www.w3.org/2000/svg"
 width="200.000000pt" height="200.000000pt" viewBox="0 0 200.000000 200.000000"
 preserveAspectRatio="xMidYMid meet">

<g transform="translate(0.000000,200.000000) scale(0.100000,-0.100000)"
fill="#000000" stroke="none">
<path d="M0 1000 l0 -1000 1000 0 1000 0 0 1000 0 1000 -1000 0 -1000 0 0
-1000z m895 618 l8 -23 4 23 c4 20 10 22 79 22 l74 0 1 -52 1 -53 12 50 12 50
72 3 c81 3 79 6 58 -77 -8 -31 -17 -68 -20 -83 l-6 -28 -188 0 c-159 0 -193
-3 -227 -19 -71 -32 -108 -86 -130 -193 -10 -53 -25 -28 -25 42 0 69 0 70 28
71 l27 1 -28 11 c-27 11 -28 14 -22 57 4 25 13 60 21 78 l13 33 33 -17 33 -17
-24 26 c-22 25 -23 28 -8 50 23 35 94 67 148 67 40 0 48 -3 54 -22z m388 -192
l-38 -41 38 34 37 35 0 -60 0 -59 -148 -148 -148 -147 -42 43 -42 43 187 187
c127 126 189 182 191 171 2 -9 -13 -35 -35 -58z m-138 -31 c0 -31 -12 -47
-115 -150 -101 -101 -113 -117 -103 -134 24 -39 -64 -130 -151 -156 -78 -23
-76 -25 -76 65 l0 80 48 2 47 2 -49 3 -48 4 6 42 c16 99 81 187 139 187 9 0
17 5 17 11 0 6 -7 8 -16 5 -9 -3 -22 -6 -30 -6 -8 0 -32 -18 -54 -40 -36 -36
-42 -39 -64 -29 -21 10 -23 15 -15 38 13 32 45 68 84 92 26 17 52 19 205 19
l175 0 0 -35z m125 -210 c0 -74 -11 -82 -60 -42 l-28 22 41 43 c23 23 42 42
44 42 2 0 3 -29 3 -65z m-112 -107 c8 -10 61 -95 119 -190 l104 -173 -137 -3
c-76 -1 -141 1 -145 5 -4 4 -28 73 -53 153 -26 80 -49 151 -51 157 -3 10 0 10
15 0 18 -10 26 -6 72 41 31 31 55 47 57 40 2 -7 10 -21 19 -30z m-219 -66
c-20 -94 -125 -182 -216 -182 -22 0 -24 3 -21 47 3 47 3 48 45 55 72 12 142
56 179 114 23 34 26 26 13 -34z m16 -64 c-10 -61 -28 -99 -66 -143 -37 -42
-118 -85 -161 -85 -26 0 -28 3 -28 43 l0 44 54 12 c78 17 140 61 173 121 16
27 30 50 31 50 2 0 1 -19 -3 -42z m-321 -439 l9 -34 10 38 c5 20 15 37 22 37
7 0 16 -17 20 -37 l8 -38 10 38 c5 22 15 37 24 37 10 0 13 -6 9 -16 -4 -9 -11
-36 -17 -60 -14 -54 -34 -57 -46 -6 l-10 37 -10 -35 c-13 -50 -34 -44 -50 15
-16 62 -16 68 -1 63 7 -3 16 -20 22 -39z m206 31 c0 -5 -11 -10 -25 -10 -16 0
-25 -6 -25 -15 0 -9 9 -15 25 -15 14 0 25 -4 25 -10 0 -5 -11 -10 -25 -10 -16
0 -25 -6 -25 -15 0 -9 9 -15 25 -15 14 0 25 -4 25 -10 0 -5 -18 -10 -40 -10
l-40 0 0 60 0 60 40 0 c22 0 40 -4 40 -10z m109 -9 c7 -13 6 -24 -4 -37 -12
-16 -12 -22 1 -41 13 -20 13 -23 -1 -23 -8 0 -20 9 -27 20 -7 11 -16 20 -20
20 -5 0 -8 -9 -8 -20 0 -11 -7 -20 -15 -20 -12 0 -15 13 -15 60 l0 60 40 0
c28 0 42 -5 49 -19z m111 9 c0 -5 -13 -10 -30 -10 -20 0 -30 -5 -30 -15 0 -9
9 -15 25 -15 14 0 25 -4 25 -10 0 -5 -11 -10 -25 -10 -16 0 -25 -6 -25 -15 0
-10 10 -15 30 -15 17 0 30 -4 30 -10 0 -5 -20 -10 -45 -10 l-45 0 0 60 0 60
45 0 c25 0 45 -4 45 -10z m100 -46 c21 -57 19 -83 -4 -51 -17 22 -45 22 -62 0
-23 -32 -25 -6 -4 51 12 31 28 56 35 56 7 0 23 -25 35 -56z m120 41 c17 -21 6
-29 -18 -14 -17 10 -23 10 -36 0 -36 -30 -3 -87 36 -62 24 15 35 7 18 -14 -15
-18 -61 -20 -78 -3 -7 7 -12 28 -12 48 0 20 5 41 12 48 17 17 63 15 78 -3z
m120 6 c0 -5 -9 -11 -20 -14 -16 -4 -20 -14 -20 -51 0 -25 -4 -46 -10 -46 -5
0 -10 23 -10 50 0 43 -3 50 -20 50 -11 0 -20 5 -20 10 0 6 23 10 50 10 28 0
50 -4 50 -9z m-610 -167 c0 -8 -4 -12 -10 -9 -5 3 -10 10 -10 16 0 5 5 9 10 9
6 0 10 -7 10 -16z m27 -6 c-3 -8 -6 -5 -6 6 -1 11 2 17 5 13 3 -3 4 -12 1 -19z
m53 3 c0 -4 -6 -8 -14 -8 -8 0 -12 6 -9 14 5 13 23 9 23 -6z m27 -3 c-3 -8 -6
-5 -6 6 -1 11 2 17 5 13 3 -3 4 -12 1 -19z m30 0 c-3 -8 -6 -5 -6 6 -1 11 2
17 5 13 3 -3 4 -12 1 -19z m36 5 c-3 -7 -6 -13 -8 -13 -2 0 -5 6 -8 13 -3 8 1
14 8 14 7 0 11 -6 8 -14z m37 -4 c0 -5 -4 -9 -10 -9 -5 0 -10 7 -10 16 0 8 5
12 10 9 6 -3 10 -10 10 -16z m63 8 c3 -8 -1 -14 -9 -14 -15 0 -18 9 -7 20 9 9
10 9 16 -6z m38 4 c7 11 9 10 9 -3 0 -10 -7 -18 -15 -18 -8 0 -15 8 -14 18 0
12 2 13 6 3 5 -11 7 -11 14 0z m39 -12 c0 -5 -4 -9 -10 -9 -5 0 -10 7 -10 16
0 8 5 12 10 9 6 -3 10 -10 10 -16z m50 6 c0 -6 -7 -12 -15 -12 -8 0 -15 6 -15
12 0 6 7 12 15 12 8 0 15 -6 15 -12z m35 -7 c6 -4 2 -8 -7 -8 -10 0 -18 7 -18
17 0 9 3 12 8 7 4 -5 12 -12 17 -16z m33 -3 c-3 -3 -9 2 -12 12 -6 14 -5 15 5
6 7 -7 10 -15 7 -18z"/>
<path d="M953 1353 c32 -2 81 -2 110 0 29 2 3 3 -58 3 -60 0 -84 -1 -52 -3z"/>
<path d="M890 516 c0 -10 9 -16 21 -16 24 0 21 23 -4 28 -10 2 -17 -3 -17 -12z"/>
<path d="M1116 495 c-3 -9 0 -15 9 -15 9 0 12 6 9 15 -4 8 -7 15 -9 15 -2 0
-5 -7 -9 -15z"/>
</g>
</svg>
