<?xml version="1.0" encoding="UTF-8"?>
<svg version="1.1" xmlns="http://www.w3.org/2000/svg" width="647" height="177">
<path d="M0 0 C213.51 0 427.02 0 647 0 C647 58.41 647 116.82 647 177 C433.49 177 219.98 177 0 177 C0 118.59 0 60.18 0 0 Z " fill="#3F444C" transform="translate(0,0)"/>
<path d="M0 0 C7.92 0 15.84 0 24 0 C24.78246094 3.23683594 25.56492187 6.47367188 26.37109375 9.80859375 C27.12813314 12.9296517 27.88639378 16.05041054 28.64477539 19.17114258 C29.17274863 21.34661345 29.69944399 23.52239486 30.22485352 25.69848633 C30.97860412 28.81934061 31.73688553 31.9390633 32.49609375 35.05859375 C32.73154404 36.03775253 32.96699432 37.01691132 33.20957947 38.02574158 C33.42973221 38.92659988 33.64988495 39.82745819 33.87670898 40.75561523 C34.06990219 41.55281479 34.2630954 42.35001434 34.46214294 43.17137146 C34.84187544 45.00148912 34.84187544 45.00148912 36 46 C36.2266333 44.99735107 36.4532666 43.99470215 36.68676758 42.96166992 C37.53980059 39.19077022 38.3960376 35.42060372 39.25317383 31.65063477 C39.62154181 30.02843284 39.98907616 28.40604135 40.35571289 26.78344727 C40.88721461 24.43193283 41.42185492 22.08114927 41.95703125 19.73046875 C42.11653763 19.02166061 42.27604401 18.31285248 42.44038391 17.58256531 C43.79391767 11.65949682 45.39668281 5.87882969 47 0 C54.92 0 62.84 0 71 0 C75.19459052 14.55769652 78.68350913 29.21920225 82 44 C82.33 44 82.66 44 83 44 C83.29769287 42.73816895 83.59538574 41.47633789 83.90209961 40.17626953 C85.00474061 35.50542823 86.11063631 30.83536267 87.2175293 26.16552734 C87.69661189 24.14230097 88.17480544 22.11886387 88.65209961 20.09521484 C89.33735599 17.19052478 90.02578104 14.28660163 90.71484375 11.3828125 C91.03520851 10.02024826 91.03520851 10.02024826 91.36204529 8.63015747 C91.56217728 7.78943695 91.76230927 6.94871643 91.96850586 6.08251953 C92.23164833 4.96999313 92.23164833 4.96999313 92.50010681 3.83499146 C93 2 93 2 94 0 C102.25 0 110.5 0 119 0 C116.98293644 7.39589974 114.8758065 14.60090727 112.3828125 21.828125 C112.04377899 22.82019958 111.70474548 23.81227417 111.35543823 24.83441162 C110.28180869 27.97404179 109.20358771 31.11207014 108.125 34.25 C107.05721998 37.36617435 105.99040769 40.48267864 104.92376709 43.59924316 C104.23587991 45.60905954 103.54761366 47.61874622 102.85894775 49.6282959 C100.19610201 57.40491002 97.58414566 65.19689349 95 73 C86.42 73 77.84 73 69 73 C64.05 53.695 64.05 53.695 59 34 C56.38304562 36.61695438 56.20213182 38.65654645 55.37890625 42.2578125 C55.08306641 43.52367187 54.78722656 44.78953125 54.48242188 46.09375 C54.17511319 47.43734737 53.86847749 48.78109885 53.5625 50.125 C52.96605587 52.73336369 52.36182746 55.33955913 51.75390625 57.9453125 C51.48908447 59.10562988 51.2242627 60.26594727 50.95141602 61.46142578 C49.89582295 65.3874627 48.42748166 69.19338225 47 73 C39.08 73 31.16 73 23 73 C18.49633428 61.74083569 18.49633428 61.74083569 16.6940918 56.40454102 C16.29075119 55.21373428 15.88741058 54.02292755 15.47184753 52.79603577 C15.05188004 51.54463303 14.63191254 50.29323029 14.19921875 49.00390625 C13.98098764 48.35486769 13.76275654 47.70582912 13.53791237 47.03712273 C12.38820203 43.61769264 11.24181212 40.19717206 10.09838867 36.77563477 C8.91839521 33.24672547 7.72726413 29.72167907 6.53364849 26.19735813 C5.61402543 23.47564859 4.7024119 20.75130631 3.7930088 18.02616692 C3.35700054 16.72419405 2.91799209 15.42322189 2.47592735 14.12329292 C1.86181173 12.31494257 1.26006826 10.50240476 0.65893555 8.68969727 C0.14075508 7.14609276 0.14075508 7.14609276 -0.38789368 5.57130432 C-1 3 -1 3 0 0 Z " fill="#1672BB" transform="translate(61,47)"/>
<path d="M0 0 C4.95 0 9.9 0 15 0 C15.97997768 3.41643594 16.95901426 6.83313676 17.9375 10.25 C18.35418945 11.70212891 18.35418945 11.70212891 18.77929688 13.18359375 C19.04677734 14.11816406 19.31425781 15.05273438 19.58984375 16.015625 C19.83597412 16.87446289 20.08210449 17.73330078 20.33569336 18.61816406 C20.92695187 20.73808984 21.47848343 22.86199846 22 25 C24.92608728 16.80695561 26.95838673 8.4462681 29 0 C33.95 0 38.9 0 44 0 C46.31 8.58 48.62 17.16 51 26 C52.98 17.42 54.96 8.84 57 0 C61.95 0 66.9 0 72 0 C70.75056411 6.01647449 69.21158393 11.74049015 67.1796875 17.53515625 C66.91616486 18.29928329 66.65264221 19.06341034 66.38113403 19.85069275 C65.55036362 22.25625285 64.71281809 24.65938662 63.875 27.0625 C63.30553688 28.70752565 62.73652246 30.3527067 62.16796875 31.99804688 C60.78464124 36.00082399 59.39214685 40.00023863 58 44 C52.72 44 47.44 44 42 44 C41.16405558 40.37558382 40.33112923 36.75052046 39.5 33.125 C39.26152344 32.09246094 39.02304688 31.05992188 38.77734375 29.99609375 C38.55175781 29.00996094 38.32617188 28.02382812 38.09375 27.0078125 C37.88427734 26.09660645 37.67480469 25.18540039 37.45898438 24.24658203 C37 22 37 22 37 20 C36.34 20 35.68 20 35 20 C34.89042969 20.72703125 34.78085938 21.4540625 34.66796875 22.203125 C33.5018012 29.59833385 31.89679685 36.75768476 30 44 C24.72 44 19.44 44 14 44 C12.00237154 38.05644814 10.00864026 32.11160906 8.01855469 26.16552734 C7.34059662 24.14172827 6.66156341 22.11828904 5.98144531 20.09521484 C5.00565136 17.19201446 4.03369532 14.28755396 3.0625 11.3828125 C2.75626709 10.47443634 2.45003418 9.56606018 2.13452148 8.63015747 C1.85423096 7.78943695 1.57394043 6.94871643 1.28515625 6.08251953 C1.03644775 5.34083527 0.78773926 4.599151 0.53149414 3.83499146 C0 2 0 2 0 0 Z " fill="#FBFBFB" transform="translate(209,62)"/>
<path d="M0 0 C4.95 0 9.9 0 15 0 C15 0.99 15 1.98 15 3 C15.639375 2.505 16.27875 2.01 16.9375 1.5 C21.05038071 -0.51447218 24.49463636 -0.6121418 29 0 C32 1.3125 32 1.3125 34 3 C34.495 4.485 34.495 4.485 35 6 C35.66 6 36.32 6 37 6 C37.268125 5.38125 37.53625 4.7625 37.8125 4.125 C39 2 39 2 42 0 C46.03539995 -0.65983304 50.16361134 -0.87144309 53.91796875 0.91015625 C57.66322574 3.78614371 58.93909682 6.5227939 60 11 C60.23449787 15.12878487 60.1882952 19.24133671 60.125 23.375 C60.11597656 24.49261719 60.10695313 25.61023438 60.09765625 26.76171875 C60.07418457 29.50790512 60.03831655 32.25398063 60 35 C55.05 35 50.1 35 45 35 C44.505 24.605 44.505 24.605 44 14 C41.525 13.505 41.525 13.505 39 13 C37.82530556 15.34938888 37.79965111 16.95073205 37.68359375 19.5703125 C37.62075195 20.91416016 37.62075195 20.91416016 37.55664062 22.28515625 C37.51732422 23.22230469 37.47800781 24.15945312 37.4375 25.125 C37.37272461 26.54232422 37.37272461 26.54232422 37.30664062 27.98828125 C37.2004106 30.32534172 37.09968729 32.6626513 37 35 C32.38 35 27.76 35 23 35 C22.93941406 33.57945313 22.87882813 32.15890625 22.81640625 30.6953125 C22.73200709 28.83853091 22.64735877 26.98176064 22.5625 25.125 C22.52318359 24.18785156 22.48386719 23.25070313 22.44335938 22.28515625 C22.40146484 21.38925781 22.35957031 20.49335937 22.31640625 19.5703125 C22.27974854 18.74289551 22.24309082 17.91547852 22.20532227 17.06298828 C22.11761673 14.93820571 22.11761673 14.93820571 21 13 C19.35 13.33 17.7 13.66 16 14 C15.67 20.93 15.34 27.86 15 35 C10.05 35 5.1 35 0 35 C0 23.45 0 11.9 0 0 Z " fill="#F7F8F8" transform="translate(494,71)"/>
<path d="M0 0 C6.1875 -0.0928125 6.1875 -0.0928125 12.5 -0.1875 C13.78455078 -0.21481201 15.06910156 -0.24212402 16.39257812 -0.27026367 C23.9193714 -0.32471232 29.69632879 0.1175038 36.09375 4.40234375 C39.51796618 8.14044641 40.41723987 10.97207972 40.5625 16.0625 C40.27951261 21.59110721 38.94820039 25.32122446 35.6875 29.8046875 C34.68006913 32.13861602 34.68006913 32.13861602 36.3359375 34.7265625 C37.00882812 35.68304688 37.68171875 36.63953125 38.375 37.625 C42 42.84555985 42 42.84555985 42 45 C36.72 45 31.44 45 26 45 C25.175 43.576875 24.35 42.15375 23.5 40.6875 C23.0359375 39.88699219 22.571875 39.08648437 22.09375 38.26171875 C21 36 21 36 21 33 C19.02 33 17.04 33 15 33 C15 36.96 15 40.92 15 45 C10.05 45 5.1 45 0 45 C0 30.15 0 15.3 0 0 Z " fill="#F8F8F8" transform="translate(326,61)"/>
<path d="M0 0 C4.95 0 9.9 0 15 0 C15.33 6.93 15.66 13.86 16 21 C17.32 21.33 18.64 21.66 20 22 C22.43914492 19.56085508 22.28662523 18.78553569 22.4140625 15.4296875 C22.45273437 14.53378906 22.49140625 13.63789062 22.53125 12.71484375 C22.5621875 11.77769531 22.593125 10.84054688 22.625 9.875 C22.66367187 8.93011719 22.70234375 7.98523438 22.7421875 7.01171875 C22.8366082 4.6748065 22.91939898 2.3374297 23 0 C27.62 0 32.24 0 37 0 C37 11.55 37 23.1 37 35 C32.05 35 27.1 35 22 35 C22 34.01 22 33.02 22 32 C21.360625 32.495 20.72125 32.99 20.0625 33.5 C15.94469227 35.51688542 12.50697265 35.85695959 8 35 C4.16337671 32.95163333 1.56368998 30.05215248 0 26 C-0.22705078 23.15917969 -0.22705078 23.15917969 -0.1953125 19.921875 C-0.18886719 18.76171875 -0.18242187 17.6015625 -0.17578125 16.40625 C-0.15902344 15.1996875 -0.14226562 13.993125 -0.125 12.75 C-0.11597656 11.52796875 -0.10695313 10.3059375 -0.09765625 9.046875 C-0.07409603 6.03116634 -0.03822539 3.01555842 0 0 Z " fill="#F7F8F8" transform="translate(449,71)"/>
<path d="M0 0 C5.52175735 4.04031025 8.22287344 8.1768672 9.5625 14.875 C9.5625 16.525 9.5625 18.175 9.5625 19.875 C2.3025 19.875 -4.9575 19.875 -12.4375 19.875 C-12.1075 20.535 -11.7775 21.195 -11.4375 21.875 C-9.58125 21.9059375 -9.58125 21.9059375 -7.6875 21.9375 C-6.64335937 21.95490234 -6.64335937 21.95490234 -5.578125 21.97265625 C-3.41434671 21.97142505 -3.41434671 21.97142505 -1.375 21.1875 C0.5625 20.875 0.5625 20.875 2.265625 22.08984375 C2.77609375 22.65832031 3.2865625 23.22679688 3.8125 23.8125 C4.59367187 24.66134766 4.59367187 24.66134766 5.390625 25.52734375 C5.77734375 25.97207031 6.1640625 26.41679688 6.5625 26.875 C5.41485318 30.31794045 4.15008763 31.38280453 0.984375 33.0703125 C-4.99515922 35.05706097 -12.11704819 35.14783986 -18.015625 32.88671875 C-22.68878906 30.09147432 -25.69671456 27.09735632 -27.4375 21.875 C-28.00814226 16.00019119 -28.2853572 10.38319701 -24.8125 5.37890625 C-18.03834815 -2.03032234 -9.39119439 -3.0734818 0 0 Z " fill="#F9F9F9" transform="translate(311.4375,72.125)"/>
<path d="M0 0 C4.89288181 2.75281762 7.45516834 5.93284272 9.52734375 11.11328125 C9.52734375 14.08328125 9.52734375 17.05328125 9.52734375 20.11328125 C-0.86765625 20.60828125 -0.86765625 20.60828125 -11.47265625 21.11328125 C-10.81265625 21.77328125 -10.15265625 22.43328125 -9.47265625 23.11328125 C-7.13004982 22.85299165 -4.79540802 22.51375569 -2.47265625 22.11328125 C1.52734375 22.11328125 1.52734375 22.11328125 4.27734375 24.61328125 C5.01984375 25.43828125 5.76234375 26.26328125 6.52734375 27.11328125 C5.54792534 30.269185 4.5137529 31.12155394 1.65234375 32.86328125 C-4.8357489 35.31494048 -12.60003073 35.31423755 -18.97265625 32.55078125 C-23.89008128 29.68824693 -25.70860825 25.40542526 -27.47265625 20.11328125 C-28.00507606 13.83072753 -27.31382289 9.24578026 -23.47265625 4.11328125 C-17.3077711 -2.14248673 -8.07695614 -2.89647558 0 0 Z " fill="#FAFAFA" transform="translate(398.47265625,71.88671875)"/>
<path d="M0 0 C4.54613981 1.97318114 7.11939659 4.79133816 9.79296875 8.8984375 C10.60546875 11.38671875 10.60546875 11.38671875 10.60546875 20.38671875 C0.21046875 20.88171875 0.21046875 20.88171875 -10.39453125 21.38671875 C-9.73453125 22.04671875 -9.07453125 22.70671875 -8.39453125 23.38671875 C-6.05192482 23.12642915 -3.71728302 22.78719319 -1.39453125 22.38671875 C2.60546875 22.38671875 2.60546875 22.38671875 5.35546875 24.88671875 C6.09796875 25.71171875 6.84046875 26.53671875 7.60546875 27.38671875 C6.62605034 30.5426225 5.5918779 31.39499144 2.73046875 33.13671875 C-3.7576239 35.58837798 -11.52190573 35.58767505 -17.89453125 32.82421875 C-21.74506082 30.49785714 -24.19473084 27.75580327 -25.39453125 23.38671875 C-26.11624434 16.65902548 -26.51984209 11.0227068 -22.39453125 5.38671875 C-15.92082199 -1.13640814 -8.90890749 -2.28172672 0 0 Z " fill="#FBFBFB" transform="translate(584.39453125,71.61328125)"/>
<path d="M0 0 C1.06637695 0.00483398 1.06637695 0.00483398 2.15429688 0.00976562 C7.61497381 0.1557192 10.89859742 1.05637794 15.125 4.4375 C13.805 7.0775 12.485 9.7175 11.125 12.4375 C6.36149415 11.72297412 1.78298604 10.64215156 -2.875 9.4375 C-2.02541914 11.71640413 -2.02541914 11.71640413 0.671875 12.33203125 C2.25742187 12.78642578 2.25742187 12.78642578 3.875 13.25 C8.74506771 14.8269743 12.22594387 15.98537808 15.125 20.4375 C15.96315208 25.04733642 15.52931761 26.82524762 12.9375 30.75 C7.2034178 36.2292341 1.38117818 35.84799539 -6.24609375 35.7734375 C-10.8813318 35.34434119 -13.2501399 34.2666591 -16.875 31.4375 C-16.31445339 28.07422037 -15.45658962 25.44637781 -13.875 22.4375 C-13.29492188 22.64246094 -12.71484375 22.84742187 -12.1171875 23.05859375 C-7.7128016 24.57759813 -3.51822223 25.8422151 1.125 26.4375 C1.125 25.7775 1.125 25.1175 1.125 24.4375 C0.38894531 24.26734375 -0.34710938 24.0971875 -1.10546875 23.921875 C-10.97080973 21.47182995 -10.97080973 21.47182995 -14.875 17.4375 C-16.40714888 14.37320224 -16.10438548 11.8209358 -15.875 8.4375 C-12.75744944 1.21790922 -7.38435779 -0.10303755 0 0 Z " fill="#FAFAFA" transform="translate(428.875,70.5625)"/>
<path d="M0 0 C7.71484375 -0.09765625 7.71484375 -0.09765625 10 0 C11 1 11 1 11.1875 4.4375 C11 8 11 8 9 10 C5.98173347 10.27240673 3.03629378 10.08675125 0 10 C0 6.7 0 3.4 0 0 Z " fill="#42474F" transform="translate(341,73)"/>
<path d="M0 0 C4.62 0 9.24 0 14 0 C13 2 13 2 10.25 3.1875 C6.91136009 4.02215998 5.21085964 4.15947709 2 3 C1.34 2.01 0.68 1.02 0 0 Z " fill="#555961" transform="translate(573,92)"/>
<path d="M0 0 C4.29 0 8.58 0 13 0 C9.48283697 3.51716303 7.80432667 3.54676163 3 4 C2.01 2.68 1.02 1.36 0 0 Z " fill="#4E525A" transform="translate(386,92)"/>
<path d="M0 0 C1.65 0.33 3.3 0.66 5 1 C5.33 2.32 5.66 3.64 6 5 C3.03 5 0.06 5 -3 5 C-2.01 3.35 -1.02 1.7 0 0 Z " fill="#575B63" transform="translate(388,80)"/>
<path d="M0 0 C1.67542976 0.28604898 3.34385343 0.61781233 5 1 C5.33 2.32 5.66 3.64 6 5 C3.36 5 0.72 5 -2 5 C-1.125 1.125 -1.125 1.125 0 0 Z " fill="#5B5E66" transform="translate(575,80)"/>
<path d="M0 0 C2.0625 0.4375 2.0625 0.4375 4 1 C4.33 2.32 4.66 3.64 5 5 C2.36 5 -0.28 5 -3 5 C-1.125 1.125 -1.125 1.125 0 0 Z " fill="#484C55" transform="translate(301,80)"/>
<path d="M0 0 C7.75 0.875 7.75 0.875 10 2 C10 2.99 10 3.98 10 5 C8.51793505 4.745504 7.03931385 4.47088238 5.5625 4.1875 C4.73878906 4.03667969 3.91507812 3.88585937 3.06640625 3.73046875 C2.38449219 3.48941406 1.70257813 3.24835938 1 3 C0.67 2.01 0.34 1.02 0 0 Z " fill="#5C6067" transform="translate(426,80)"/>
</svg>
